<svg version="1.1" id="Layer_1" xmlns="http://www.w3.org/2000/svg" xmlns:xlink="http://www.w3.org/1999/xlink" x="0px" y="0px"
	 width="100%" viewBox="0 0 501 250" enable-background="new 0 0 501 250" xml:space="preserve">
<path fill="#47704C" opacity="1.000000" stroke="none" 
	d="
M495.134155,251.000000 
	C330.120178,251.000000 165.624054,251.000000 1.063975,251.000000 
	C1.063975,167.711334 1.063975,84.422600 1.063975,1.066933 
	C167.951401,1.066933 334.902832,1.066933 501.927124,1.066933 
	C501.927124,84.282730 501.927124,167.565552 501.927124,251.000000 
	C499.884949,251.000000 497.768494,251.000000 495.134155,251.000000 
M12.573426,229.020447 
	C12.044079,229.984451 10.821095,231.432220 11.100190,231.832397 
	C12.677725,234.094315 13.167783,238.181915 19.162647,236.082458 
	C16.939322,233.411667 15.109763,231.213898 12.573426,229.020447 
M27.389549,224.047455 
	C26.745977,222.820312 26.102406,221.593185 25.458834,220.366043 
	C24.398558,221.052124 23.112038,221.559540 22.371098,222.497787 
	C21.986301,222.985077 22.545298,225.011734 22.713079,225.016190 
	C24.106537,225.053085 25.508196,224.780121 27.389549,224.047455 
z"/>
<path fill="#FFB900" opacity="1.000000" stroke="none" 
	d="
M12.926816,229.018280 
	C15.109763,231.213898 16.939322,233.411667 19.162647,236.082458 
	C13.167783,238.181915 12.677725,234.094315 11.100190,231.832397 
	C10.821095,231.432220 12.044079,229.984451 12.926816,229.018280 
z"/>
<path fill="#FFB900" opacity="1.000000" stroke="none" 
	d="
M27.148464,224.324127 
	C25.508196,224.780121 24.106537,225.053085 22.713079,225.016190 
	C22.545298,225.011734 21.986301,222.985077 22.371098,222.497787 
	C23.112038,221.559540 24.398558,221.052124 25.458834,220.366043 
	C26.102406,221.593185 26.745977,222.820312 27.148464,224.324127 
z"/>
</svg>